<svg id="Layer_1" data-name="Layer 1" xmlns="http://www.w3.org/2000/svg" viewBox="0 0 64 64"><path d="M32,8A24,24,0,1,1,8,32,24,24,0,0,1,32,8m0-3A27,27,0,1,0,59,32,27,27,0,0,0,32,5Z"/><path d="M49.68,33V30.82h2.45a20.15,20.15,0,0,0-19-19V14.3H30.91V11.87a20.15,20.15,0,0,0-19,19h2.52v2.18H11.87A20.16,20.16,0,0,0,31,52.14V49.59h2.18v2.54A20.16,20.16,0,0,0,52.14,33ZM28.42,35.69c-2-2-9.5-16.66-9.5-16.66s14.68,7.52,16.66,9.5S45,45.11,45,45.11,30.4,37.67,28.42,35.69Z"/><circle cx="31.99" cy="32.01" r="3.3"/></svg>
