<svg id="Layer_1" data-name="Layer 1" xmlns="http://www.w3.org/2000/svg" viewBox="0 0 64 64"><rect x="10.61" y="7.49" width="11.94" height="11.94"/><rect x="27.27" y="7.49" width="11.94" height="11.94" transform="translate(0.22 27.44) rotate(-45)"/><path d="M19.55,29V35H13.61V29h5.94m3-3H10.61V38H22.55V26Z"/><path d="M52.86,10.26V16.2H46.93V10.26h5.93m3-3H43.93V19.2H55.86V7.26Z"/><rect x="27.27" y="26.03" width="11.94" height="11.94"/><rect x="10.61" y="44.57" width="11.94" height="11.94" transform="translate(-30.88 26.53) rotate(-45)"/><rect x="27.27" y="44.57" width="11.94" height="11.94"/><circle cx="49.89" cy="32" r="5.97"/><polygon points="49.9 44.57 43.92 56.51 55.86 56.51 49.9 44.57"/></svg>
