<svg width="56" height="56" viewBox="0 0 56 56" fill="none" xmlns="http://www.w3.org/2000/svg">
<path d="M28 0C12.5603 0 0 12.5603 0 28C0 43.4397 12.5603 56 28 56C43.4397 56 56 43.4397 56 28C56 12.5603 43.4397 0 28 0ZM28 51.3333C15.134 51.3333 4.66667 40.866 4.66667 28C4.66667 15.134 15.134 4.66667 28 4.66667C40.866 4.66667 51.3333 15.134 51.3333 28C51.3333 40.866 40.866 51.3333 28 51.3333Z" fill="#1F263B"/>
<path d="M28 9.33337C17.6913 9.33337 9.33334 17.6914 9.33334 28C9.33334 38.311 17.6913 46.6667 28 46.6667C38.3087 46.6667 46.6667 38.311 46.6667 28C46.6667 17.6914 38.3087 9.33337 28 9.33337ZM37.9983 39.6667L28 33.0517L18.0017 39.6667L22.6543 28.9684L14 21.6674H23.9983L28 11.6667L32.0017 21.6674H42L33.348 28.9684L37.9983 39.6667Z" fill="#1F263B"/>
</svg>
