<svg width="30" height="28" viewBox="0 0 30 28" fill="none" xmlns="http://www.w3.org/2000/svg">
<path d="M29.9218 4.82069C29.9212 4.8167 29.9215 4.81272 29.9205 4.80841C29.9199 4.80608 29.9195 4.80376 29.9189 4.80144C29.9166 4.79248 29.912 4.78418 29.9087 4.77522C29.9021 4.7573 29.8962 4.73904 29.8866 4.72245C29.883 4.71614 29.8784 4.71117 29.8745 4.70519C29.8695 4.69822 29.8646 4.69159 29.8593 4.68495C29.8514 4.67466 29.8445 4.66404 29.8356 4.65475C29.8278 4.64678 29.8176 4.64048 29.809 4.63317C29.7975 4.62388 29.7876 4.61293 29.7748 4.6053L22.4567 0.0492838C22.3507 -0.0164279 22.2169 -0.0164279 22.111 0.0492838L14.9642 4.49777L7.81908 0.0492838C7.7135 -0.0164279 7.5793 -0.0164279 7.47371 0.0492838L0.156237 4.60497C0.0592055 4.66537 0 4.77223 0 4.88739V23.1121C0 23.2273 0.0592055 23.3341 0.156237 23.3945L7.47404 27.9502C7.47602 27.9515 7.47832 27.9519 7.48029 27.9529C7.48259 27.9545 7.48424 27.9565 7.48654 27.9579C7.50233 27.9668 7.51943 27.9718 7.53588 27.9781C7.54312 27.9808 7.55035 27.9854 7.55759 27.9877C7.5589 27.9881 7.56022 27.9881 7.56153 27.9884C7.58818 27.9954 7.61515 27.999 7.64245 27.9993C7.64376 27.9993 7.64508 28 7.6464 28H7.64672C7.66021 28 7.67337 27.9963 7.68685 27.9947C7.70067 27.993 7.71481 27.993 7.7283 27.9894C7.72961 27.989 7.73093 27.9881 7.73257 27.9877C7.7408 27.9854 7.74869 27.9808 7.75658 27.9781C7.77336 27.9721 7.79046 27.9668 7.80592 27.9579C7.80625 27.9579 7.80658 27.9579 7.80691 27.9575C7.80921 27.9562 7.81118 27.9542 7.81349 27.9525C7.81546 27.9515 7.81776 27.9512 7.81974 27.9499L29.7748 14.2828C29.8718 14.2224 29.931 14.1156 29.931 14.0004V4.88739C29.9304 4.86483 29.9261 4.84259 29.9218 4.82069ZM7.97532 9.63025L14.6353 5.48212V13.8152L7.97532 17.962V9.63025ZM15.2931 14.1863L21.9551 10.0385V18.3706L15.2931 22.5177V14.1863ZM7.97532 18.7416L14.6353 14.5955V22.9269L7.97532 27.0731V18.7416ZM29.2725 13.8156L22.6129 17.9614V9.62893L29.2725 5.48245V13.8156Z" fill="#AAED4A"/>
</svg>
